<svg width="217" height="230" viewBox="0 0 217 230" fill="none" xmlns="http://www.w3.org/2000/svg">
<g id="Group 3">
<path id="Ellipse 1" d="M127.78 128.593C105.251 156.111 82.8749 179.386 64.9155 194.772C55.9327 202.468 48.0736 208.174 41.8652 211.454C38.759 213.095 36.093 214.113 33.9233 214.482C31.7497 214.851 30.1529 214.557 29.0845 213.682C28.016 212.807 27.4122 211.3 27.3451 209.096C27.2782 206.896 27.7508 204.082 28.7462 200.713C30.7359 193.979 34.7784 185.149 40.5499 174.823C52.0887 154.18 70.4894 127.65 93.0187 100.133C115.548 72.6154 137.924 49.3402 155.884 33.9538C164.866 26.258 172.725 20.552 178.934 17.2724C182.04 15.6315 184.706 14.6127 186.876 14.2441C189.049 13.8749 190.646 14.1693 191.715 15.0441C192.783 15.9188 193.387 17.4261 193.454 19.6298C193.521 21.8296 193.048 24.6442 192.053 28.0132C190.063 34.7469 186.021 43.5775 180.249 53.9026C168.71 74.5456 150.31 101.076 127.78 128.593Z" stroke="black"/>
<path id="Ellipse 11" d="M124.142 139.277C98.7726 164.2 74.0135 184.923 54.4975 198.279C44.736 204.96 36.3067 209.784 29.7804 212.374C26.5151 213.67 23.7547 214.395 21.5579 214.527C19.3572 214.659 17.8015 214.194 16.8337 213.209C15.866 212.224 15.4285 210.66 15.5998 208.462C15.7709 206.268 16.5447 203.521 17.8982 200.279C20.6034 193.8 25.576 185.457 32.4288 175.816C46.1296 156.54 67.2879 132.152 92.6572 107.229C118.027 82.3054 142.786 61.5829 162.302 48.2261C172.063 41.5454 180.492 36.7216 187.019 34.1316C190.284 32.8358 193.044 32.1109 195.241 31.9788C197.442 31.8465 198.998 32.3116 199.965 33.2967C200.933 34.2817 201.371 35.8454 201.199 38.0434C201.028 40.2376 200.255 42.9847 198.901 46.2265C196.196 52.7059 191.223 61.0483 184.37 70.6897C170.67 89.9658 149.511 114.353 124.142 139.277Z" stroke="black"/>
<path id="Ellipse 4" d="M189.5 116.5C189.5 171.787 149.822 216.5 101 216.5C52.1782 216.5 12.5 171.787 12.5 116.5C12.5 61.2127 52.1782 16.5 101 16.5C149.822 16.5 189.5 61.2127 189.5 116.5Z" stroke="black"/>
<circle id="satelelite" cx="133.5" cy="60.5" r="12.5" fill="#0D0D0D"/>
</g>
</svg>
