<svg width="237" height="252" viewBox="0 0 237 252" fill="none" xmlns="http://www.w3.org/2000/svg">
<g id="Galaxy">
<circle id="Ellipse 419" cx="74.9773" cy="202.635" r="1.5" transform="rotate(-137.736 74.9773 202.635)" fill="black"/>
<circle id="Ellipse 420" cx="70.6722" cy="201.425" r="1.5" transform="rotate(-137.736 70.6722 201.425)" fill="black"/>
<circle id="Ellipse 421" cx="68.7894" cy="206.471" r="1.5" transform="rotate(-137.736 68.7894 206.471)" fill="black"/>
<circle id="Ellipse 422" cx="62.9363" cy="202.503" r="1.5" transform="rotate(-137.736 62.9363 202.503)" fill="black"/>
<circle id="Ellipse 423" cx="63.8792" cy="207.413" r="1.5" transform="rotate(-137.736 63.8792 207.413)" fill="black"/>
<circle id="Ellipse 424" cx="80.6954" cy="203.778" r="1.5" transform="rotate(-137.736 80.6954 203.778)" fill="black"/>
<circle id="Ellipse 425" cx="83.3179" cy="199.405" r="1.5" transform="rotate(-137.736 83.3179 199.405)" fill="black"/>
<circle id="dot6" cx="89.2386" cy="204.786" r="1.5" transform="rotate(-137.736 89.2386 204.786)" fill="black"/>
<circle id="Ellipse 427" cx="78.0726" cy="208.151" r="1.5" transform="rotate(-137.736 78.0726 208.151)" fill="black"/>
<circle id="Ellipse 428" cx="66.1368" cy="196.079" r="1.5" transform="rotate(-137.736 66.1368 196.079)" fill="black"/>
<circle id="Ellipse 429" cx="98.5892" cy="207.878" r="1.5" transform="rotate(-137.736 98.5892 207.878)" fill="black"/>
<circle id="Ellipse 321" cx="63.6352" cy="152.478" r="1.5" transform="rotate(-91.9298 63.6352 152.478)" fill="black"/>
<circle id="Ellipse 322" cx="61.5016" cy="148.548" r="1.5" transform="rotate(-91.9298 61.5016 148.548)" fill="black"/>
<circle id="Ellipse 323" cx="56.5719" cy="150.715" r="1.5" transform="rotate(-91.9298 56.5719 150.715)" fill="black"/>
<circle id="Ellipse 324" cx="66.8019" cy="157.374" r="1.5" transform="rotate(-91.9298 66.8019 157.374)" fill="black"/>
<ellipse id="Ellipse 325" cx="73.231" cy="155.156" rx="2.5" ry="3" transform="rotate(-91.9298 73.231 155.156)" fill="black"/>
<circle id="Ellipse 326" cx="72.0348" cy="164.202" r="1.5" transform="rotate(-91.9298 72.0348 164.202)" fill="black"/>
<circle id="Ellipse 327" cx="61.8383" cy="158.542" r="1.5" transform="rotate(-91.9298 61.8383 158.542)" fill="black"/>
<circle id="Ellipse 329" cx="40.8717" cy="134.575" r="1.5" transform="rotate(-91.9298 40.8717 134.575)" fill="black"/>
<circle id="Ellipse 330" cx="38.7382" cy="130.645" r="1.5" transform="rotate(-91.9298 38.7382 130.645)" fill="black"/>
<circle id="Ellipse 331" cx="33.8085" cy="132.812" r="1.5" transform="rotate(-91.9298 33.8085 132.812)" fill="black"/>
<circle id="Ellipse 332" cx="44.0385" cy="139.472" r="1.5" transform="rotate(-91.9298 44.0385 139.472)" fill="black"/>
<ellipse id="dot1" cx="50.4676" cy="137.254" rx="2.5" ry="3" transform="rotate(-91.9298 50.4676 137.254)" fill="black"/>
<circle id="Ellipse 334" cx="39.0749" cy="140.639" r="1.5" transform="rotate(-91.9298 39.0749 140.639)" fill="black"/>
<circle id="Ellipse 328" cx="76.3356" cy="173.062" r="1.5" transform="rotate(-91.9298 76.3356 173.062)" fill="black"/>
<circle id="Ellipse 183" cx="132.468" cy="112.458" r="1.5" transform="rotate(-14.851 132.468 112.458)" fill="black"/>
<circle id="Ellipse 184" cx="134.716" cy="117.035" r="1.5" transform="rotate(-14.851 134.716 117.035)" fill="black"/>
<circle id="Ellipse 185" cx="126.984" cy="119.085" r="1.5" transform="rotate(-14.851 126.984 119.085)" fill="black"/>
<circle id="Ellipse 186" cx="119.31" cy="125.258" r="1.5" transform="rotate(-14.851 119.31 125.258)" fill="black"/>
<circle id="Ellipse 271" cx="129.582" cy="97.2529" r="1.5" transform="rotate(42.933 129.582 97.2529)" fill="black"/>
<circle id="Ellipse 272" cx="129.385" cy="81.1782" r="1.5" transform="rotate(42.933 129.385 81.1782)" fill="black"/>
<circle id="Ellipse 273" cx="121.051" cy="96.1457" r="1.5" transform="rotate(42.933 121.051 96.1457)" fill="black"/>
<circle id="Ellipse 274" cx="122.926" cy="86.0023" r="1.5" transform="rotate(42.933 122.926 86.0023)" fill="black"/>
<circle id="Ellipse 200" cx="116.582" cy="56.9819" r="1.5" transform="rotate(-14.851 116.582 56.9819)" fill="black"/>
<circle id="Ellipse 201" cx="118.83" cy="61.5588" r="1.5" transform="rotate(-14.851 118.83 61.5588)" fill="black"/>
<circle id="Ellipse 202" cx="111.097" cy="63.6091" r="1.5" transform="rotate(-14.851 111.097 63.6091)" fill="black"/>
<circle id="Ellipse 203" cx="103.423" cy="69.7821" r="1.5" transform="rotate(-14.851 103.423 69.7821)" fill="black"/>
<circle id="Ellipse 187" cx="108.448" cy="125.325" r="1.5" transform="rotate(33.1606 108.448 125.325)" fill="black"/>
<circle id="Ellipse 188" cx="106.55" cy="130.058" r="1.5" transform="rotate(33.1606 106.55 130.058)" fill="black"/>
<circle id="Ellipse 189" cx="99.853" cy="125.682" r="1.5" transform="rotate(33.1606 99.853 125.682)" fill="black"/>
<circle id="Ellipse 190" cx="90.1308" cy="124.108" r="1.5" transform="rotate(33.1606 90.1308 124.108)" fill="black"/>
<circle id="Ellipse 191" cx="84.4264" cy="120.895" r="1.5" transform="rotate(95.9253 84.4264 120.895)" fill="black"/>
<ellipse id="Ellipse 192" cx="83.6571" cy="113.777" rx="2.5" ry="3" transform="rotate(95.9253 83.6571 113.777)" fill="black"/>
<circle id="Ellipse 193" cx="82.2028" cy="103.573" r="1.5" transform="rotate(95.9253 82.2028 103.573)" fill="black"/>
<circle id="Ellipse 194" cx="91.1082" cy="107.634" r="1.5" transform="rotate(106.857 91.1082 107.634)" fill="black"/>
<circle id="Ellipse 195" cx="88.3529" cy="99.4843" r="1.5" transform="rotate(106.857 88.3529 99.4843)" fill="black"/>
<circle id="Ellipse 196" cx="87.1348" cy="89.7112" r="1.5" transform="rotate(106.857 87.1348 89.7112)" fill="black"/>
<circle id="Ellipse 197" cx="88.6171" cy="83.3342" r="1.5" transform="rotate(169.622 88.6171 83.3342)" fill="black"/>
<circle id="Ellipse 198" cx="96.4863" cy="81.8933" r="1.5" transform="rotate(169.622 96.4863 81.8933)" fill="black"/>
<circle id="Ellipse 199" cx="104.618" cy="76.3374" r="1.5" transform="rotate(169.622 104.618 76.3374)" fill="black"/>
<circle id="Ellipse 204" cx="150.24" cy="35.5049" r="1.5" transform="rotate(1.85622 150.24 35.5049)" fill="black"/>
<circle id="Ellipse 205" cx="151.078" cy="40.5348" r="1.5" transform="rotate(1.85622 151.078 40.5348)" fill="black"/>
<circle id="Ellipse 206" cx="143.082" cy="40.2757" r="1.5" transform="rotate(1.85622 143.082 40.2757)" fill="black"/>
<circle id="Ellipse 207" cx="133.957" cy="43.9819" r="1.5" transform="rotate(1.85622 133.957 43.9819)" fill="black"/>
<circle id="Ellipse 208" cx="123.832" cy="53.5875" r="1.5" transform="rotate(-173.671 123.832 53.5875)" fill="black"/>
<circle id="Ellipse 209" cx="133.218" cy="50.604" r="1.5" transform="rotate(-173.671 133.218 50.604)" fill="black"/>
<circle id="Ellipse 335" cx="21.2179" cy="108.827" r="1.5" transform="rotate(-72.2652 21.2179 108.827)" fill="black"/>
<circle id="Ellipse 336" cx="26.2853" cy="109.397" r="1.5" transform="rotate(-72.2652 26.2853 109.397)" fill="black"/>
<circle id="Ellipse 337" cx="23.8483" cy="117.017" r="1.5" transform="rotate(-72.2652 23.8483 117.017)" fill="black"/>
<circle id="Ellipse 338" cx="24.9166" cy="126.808" r="1.5" transform="rotate(-72.2652 24.9166 126.808)" fill="black"/>
<circle id="Ellipse 339" cx="31.0836" cy="129.331" r="1.5" transform="rotate(112.208 31.0836 129.331)" fill="black"/>
<circle id="Ellipse 340" cx="19.6225" cy="87.1847" r="1.5" transform="rotate(-55.558 19.6225 87.1847)" fill="black"/>
<circle id="Ellipse 341" cx="22.2627" cy="100.89" r="1.5" transform="rotate(128.915 22.2627 100.89)" fill="black"/>
<circle id="Ellipse 342" cx="24.8037" cy="91.3745" r="1.5" transform="rotate(128.915 24.8037 91.3745)" fill="black"/>
<circle id="Ellipse 351" cx="40.8717" cy="134.575" r="1.5" transform="rotate(-91.9298 40.8717 134.575)" fill="black"/>
<circle id="Ellipse 352" cx="38.7382" cy="130.645" r="1.5" transform="rotate(-91.9298 38.7382 130.645)" fill="black"/>
<ellipse id="Ellipse 353" cx="33.8253" cy="133.312" rx="1" ry="1.5" transform="rotate(-91.9298 33.8253 133.312)" fill="black"/>
<ellipse id="Ellipse 354" cx="44.0553" cy="139.971" rx="1" ry="1.5" transform="rotate(-91.9298 44.0553 139.971)" fill="black"/>
<circle id="Ellipse 355" cx="39.0749" cy="140.639" r="1.5" transform="rotate(-91.9298 39.0749 140.639)" fill="black"/>
<circle id="Ellipse 356" cx="21.2179" cy="108.827" r="1.5" transform="rotate(-72.2652 21.2179 108.827)" fill="black"/>
<ellipse id="Ellipse 357" cx="26.133" cy="109.874" rx="1" ry="1.5" transform="rotate(-72.2652 26.133 109.874)" fill="black"/>
<ellipse id="Ellipse 358" cx="25.5816" cy="116.521" rx="2.5" ry="3" transform="rotate(-72.2652 25.5816 116.521)" fill="black"/>
<circle id="dot4" cx="24.9166" cy="126.808" r="1.5" transform="rotate(-72.2652 24.9166 126.808)" fill="black"/>
<circle id="Ellipse 360" cx="31.0836" cy="129.331" r="1.5" transform="rotate(112.208 31.0836 129.331)" fill="black"/>
<circle id="Ellipse 361" cx="19.6225" cy="87.1847" r="1.5" transform="rotate(-55.558 19.6225 87.1847)" fill="black"/>
<circle id="Ellipse 362" cx="22.2627" cy="100.89" r="1.5" transform="rotate(128.915 22.2627 100.89)" fill="black"/>
<ellipse id="Ellipse 363" cx="23.0084" cy="91.2103" rx="2.5" ry="3" transform="rotate(128.915 23.0084 91.2103)" fill="black"/>
<ellipse id="Ellipse 210" cx="182.511" cy="40.4242" rx="2.5" ry="3" transform="rotate(38.6746 182.511 40.4242)" fill="black"/>
<circle id="Ellipse 211" cx="180.324" cy="43.1568" r="1.5" transform="rotate(38.6746 180.324 43.1568)" fill="black"/>
<circle id="Ellipse 212" cx="174.078" cy="38.1575" r="1.5" transform="rotate(38.6746 174.078 38.1575)" fill="black"/>
<circle id="dot13" cx="164.552" cy="35.6564" r="1.5" transform="rotate(38.6746 164.552 35.6564)" fill="black"/>
<circle id="Ellipse 214" cx="159.992" cy="40.5142" r="1.5" transform="rotate(-136.852 159.992 40.5142)" fill="black"/>
<circle id="Ellipse 219" cx="193.072" cy="49.186" r="1.5" transform="rotate(136.123 193.072 49.186)" fill="black"/>
<circle id="Ellipse 220" cx="188.885" cy="46.275" r="1.5" transform="rotate(136.123 188.885 46.275)" fill="black"/>
<circle id="Ellipse 221" cx="194.652" cy="40.73" r="1.5" transform="rotate(136.123 194.652 40.73)" fill="black"/>
<ellipse id="Ellipse 222" cx="205.478" cy="47.661" rx="2.5" ry="3" transform="rotate(136.123 205.478 47.661)" fill="black"/>
<circle id="Ellipse 223" cx="203.052" cy="45.1382" r="1.5" transform="rotate(136.123 203.052 45.1382)" fill="black"/>
<circle id="Ellipse 224" cx="197.258" cy="52.097" r="1.5" transform="rotate(136.123 197.258 52.097)" fill="black"/>
<circle id="Ellipse 225" cx="212.303" cy="62.8195" r="1.5" transform="rotate(94.9027 212.303 62.8195)" fill="black"/>
<circle id="Ellipse 226" cx="207.236" cy="63.3886" r="1.5" transform="rotate(94.9027 207.236 63.3886)" fill="black"/>
<circle id="Ellipse 227" cx="207.92" cy="55.4179" r="1.5" transform="rotate(94.9027 207.92 55.4179)" fill="black"/>
<ellipse id="Ellipse 228" cx="204.733" cy="142.857" rx="2.5" ry="3" transform="rotate(131.721 204.733 142.857)" fill="black"/>
<circle id="Ellipse 343" cx="221.703" cy="70.3056" r="1.5" transform="rotate(136.123 221.703 70.3056)" fill="black"/>
<circle id="Ellipse 344" cx="217.517" cy="67.3946" r="1.5" transform="rotate(136.123 217.517 67.3946)" fill="black"/>
<circle id="Ellipse 346" cx="215.345" cy="126.579" r="1.5" transform="rotate(94.9027 215.345 126.579)" fill="black"/>
<circle id="Ellipse 347" cx="210.278" cy="127.148" r="1.5" transform="rotate(94.9027 210.278 127.148)" fill="black"/>
<circle id="Ellipse 348" cx="210.962" cy="119.178" r="1.5" transform="rotate(94.9027 210.962 119.178)" fill="black"/>
<circle id="Ellipse 349" cx="214.433" cy="140.863" r="1.5" transform="rotate(131.721 214.433 140.863)" fill="black"/>
<ellipse id="Ellipse 350" cx="211.585" cy="136.441" rx="2.5" ry="3" transform="rotate(-43.806 211.585 136.441)" fill="black"/>
<circle id="Ellipse 233" cx="195.423" cy="152.937" r="1.5" transform="rotate(-130.831 195.423 152.937)" fill="black"/>
<circle id="Ellipse 234" cx="198.552" cy="148.911" r="1.5" transform="rotate(-130.831 198.552 148.911)" fill="black"/>
<circle id="Ellipse 235" cx="203.783" cy="154.965" r="1.5" transform="rotate(-130.831 203.783 154.965)" fill="black"/>
<circle id="Ellipse 236" cx="195.805" cy="167.145" r="1.5" transform="rotate(-130.831 195.805 167.145)" fill="black"/>
<ellipse id="Ellipse 237" cx="199.416" cy="161.382" rx="2.5" ry="3" transform="rotate(-130.831 199.416 161.382)" fill="black"/>
<circle id="Ellipse 238" cx="192.294" cy="156.963" r="1.5" transform="rotate(-130.831 192.294 156.963)" fill="black"/>
<circle id="Ellipse 239" cx="187.977" cy="176.198" r="1.5" transform="rotate(131.721 187.977 176.198)" fill="black"/>
<circle id="Ellipse 240" cx="183.58" cy="173.616" r="1.5" transform="rotate(131.721 183.58 173.616)" fill="black"/>
<circle id="Ellipse 241" cx="188.904" cy="167.646" r="1.5" transform="rotate(131.721 188.904 167.646)" fill="black"/>
<circle id="Ellipse 242" cx="176.881" cy="186.026" r="1.5" transform="rotate(-130.831 176.881 186.026)" fill="black"/>
<circle id="Ellipse 243" cx="180.011" cy="182" r="1.5" transform="rotate(-130.831 180.011 182)" fill="black"/>
<circle id="Ellipse 244" cx="185.241" cy="188.053" r="1.5" transform="rotate(-130.831 185.241 188.053)" fill="black"/>
<circle id="Ellipse 364" cx="40.2717" cy="48.0448" r="1.5" transform="rotate(-130.831 40.2717 48.0448)" fill="black"/>
<circle id="Ellipse 365" cx="42.7861" cy="63.5277" r="1.5" transform="rotate(-130.831 42.7861 63.5277)" fill="black"/>
<ellipse id="dot3" cx="35.9044" cy="54.4618" rx="2.5" ry="3" transform="rotate(-130.831 35.9044 54.4618)" fill="black"/>
<circle id="Ellipse 367" cx="34.9581" cy="72.5807" r="1.5" transform="rotate(131.721 34.9581 72.5807)" fill="black"/>
<circle id="Ellipse 368" cx="30.5609" cy="69.9993" r="1.5" transform="rotate(131.721 30.5609 69.9993)" fill="black"/>
<circle id="Ellipse 369" cx="35.8846" cy="64.0285" r="1.5" transform="rotate(131.721 35.8846 64.0285)" fill="black"/>
<circle id="Ellipse 370" cx="23.8625" cy="82.4089" r="1.5" transform="rotate(-130.831 23.8625 82.4089)" fill="black"/>
<circle id="Ellipse 371" cx="26.9919" cy="78.3831" r="1.5" transform="rotate(-130.831 26.9919 78.3831)" fill="black"/>
<circle id="Ellipse 372" cx="32.2223" cy="84.4363" r="1.5" transform="rotate(-130.831 32.2223 84.4363)" fill="black"/>
<circle id="Ellipse 373" cx="47.9101" cy="46.3033" r="1.5" transform="rotate(-55.558 47.9101 46.3033)" fill="black"/>
<circle id="Ellipse 374" cx="53.0913" cy="50.493" r="1.5" transform="rotate(128.915 53.0913 50.493)" fill="black"/>
<circle id="Ellipse 375" cx="47.9101" cy="46.3033" r="1.5" transform="rotate(-55.558 47.9101 46.3033)" fill="black"/>
<ellipse id="Ellipse 376" cx="51.296" cy="50.3289" rx="2.5" ry="3" transform="rotate(128.915 51.296 50.3289)" fill="black"/>
<circle id="Ellipse 377" cx="86.997" cy="8.01582" r="1.5" transform="rotate(-130.831 86.997 8.01582)" fill="black"/>
<circle id="dot2" cx="79.0192" cy="20.196" r="1.5" transform="rotate(-130.831 79.0192 20.196)" fill="black"/>
<ellipse id="Ellipse 379" cx="82.6298" cy="14.4329" rx="2.5" ry="3" transform="rotate(-130.831 82.6298 14.4329)" fill="black"/>
<circle id="Ellipse 380" cx="63.2459" cy="31.6992" r="1.5" transform="rotate(131.721 63.2459 31.6992)" fill="black"/>
<circle id="Ellipse 381" cx="58.8485" cy="29.1178" r="1.5" transform="rotate(131.721 58.8485 29.1178)" fill="black"/>
<circle id="Ellipse 382" cx="72.1177" cy="20.6968" r="1.5" transform="rotate(131.721 72.1177 20.6968)" fill="black"/>
<circle id="Ellipse 383" cx="52.1501" cy="41.5275" r="1.5" transform="rotate(-130.831 52.1501 41.5275)" fill="black"/>
<circle id="Ellipse 384" cx="55.2797" cy="37.5017" r="1.5" transform="rotate(-130.831 55.2797 37.5017)" fill="black"/>
<circle id="Ellipse 385" cx="60.5102" cy="43.5549" r="1.5" transform="rotate(-130.831 60.5102 43.5549)" fill="black"/>
<circle id="Ellipse 245" cx="177.264" cy="200.234" r="1.5" transform="rotate(-130.831 177.264 200.234)" fill="black"/>
<circle id="Ellipse 246" cx="180.393" cy="196.208" r="1.5" transform="rotate(-130.831 180.393 196.208)" fill="black"/>
<circle id="dot8" cx="173.752" cy="190.052" r="1.5" transform="rotate(-130.831 173.752 190.052)" fill="black"/>
<circle id="Ellipse 263" cx="139.496" cy="234.669" r="1.5" transform="rotate(-175.461 139.496 234.669)" fill="black"/>
<circle id="Ellipse 264" cx="135.349" cy="236.347" r="1.5" transform="rotate(-175.478 135.349 236.347)" fill="black"/>
<ellipse id="Ellipse 265" cx="136.07" cy="239.915" rx="2.5" ry="3" transform="rotate(-175.478 136.07 239.915)" fill="black"/>
<ellipse id="Ellipse 266" cx="129.013" cy="240.357" rx="2.5" ry="3" transform="rotate(-175.461 129.013 240.357)" fill="black"/>
<circle id="Ellipse 267" cx="133.641" cy="245.239" r="1.5" transform="rotate(-175.461 133.641 245.239)" fill="black"/>
<circle id="Ellipse 268" cx="144.718" cy="232.074" r="1.5" transform="rotate(-175.461 144.718 232.074)" fill="black"/>
<circle id="dot10" cx="127.264" cy="249.748" r="1.5" transform="rotate(-175.461 127.264 249.748)" fill="black"/>
<circle id="Ellipse 270" cx="145.319" cy="237.138" r="1.5" transform="rotate(-175.461 145.319 237.138)" fill="black"/>
<circle id="Ellipse 253" cx="155.756" cy="221.022" r="1.5" transform="rotate(136.123 155.756 221.022)" fill="black"/>
<circle id="dot9" cx="151.57" cy="218.111" r="1.5" transform="rotate(136.123 151.57 218.111)" fill="black"/>
<circle id="Ellipse 256" cx="157.336" cy="212.566" r="1.5" transform="rotate(136.123 157.336 212.566)" fill="black"/>
<circle id="Ellipse 261" cx="164.434" cy="211.29" r="1.5" transform="rotate(136.123 164.434 211.29)" fill="black"/>
<ellipse id="Ellipse 262" cx="159.291" cy="203.056" rx="2.5" ry="3" transform="rotate(136.123 159.291 203.056)" fill="black"/>
<ellipse id="Ellipse 312" cx="100.525" cy="163.025" rx="2.5" ry="3" transform="rotate(-134.893 100.525 163.025)" fill="black"/>
<circle id="Ellipse 313" cx="95.9281" cy="163.37" r="1.5" transform="rotate(-134.893 95.9281 163.37)" fill="black"/>
<circle id="Ellipse 314" cx="93.7974" cy="168.316" r="1.5" transform="rotate(-134.893 93.7974 168.316)" fill="black"/>
<circle id="Ellipse 315" cx="88.1485" cy="164.062" r="1.5" transform="rotate(-134.893 88.1485 164.062)" fill="black"/>
<circle id="Ellipse 316" cx="88.8463" cy="169.014" r="1.5" transform="rotate(-134.893 88.8463 169.014)" fill="black"/>
<circle id="Ellipse 317" cx="105.822" cy="166.217" r="1.5" transform="rotate(-134.893 105.822 166.217)" fill="black"/>
<circle id="Ellipse 318" cx="108.659" cy="161.98" r="1.5" transform="rotate(-134.893 108.659 161.98)" fill="black"/>
<circle id="Ellipse 319" cx="81.0697" cy="168.292" r="1.5" transform="rotate(-134.893 81.0697 168.292)" fill="black"/>
<circle id="Ellipse 320" cx="102.986" cy="170.454" r="1.5" transform="rotate(-134.893 102.986 170.454)" fill="black"/>
<circle id="Ellipse 285" cx="178.711" cy="96.2898" r="1.5" transform="rotate(136.123 178.711 96.2898)" fill="black"/>
<circle id="Ellipse 286" cx="174.525" cy="93.3787" r="1.5" transform="rotate(136.123 174.525 93.3787)" fill="black"/>
<circle id="Ellipse 287" cx="180.291" cy="87.8338" r="1.5" transform="rotate(136.123 180.291 87.8338)" fill="black"/>
<circle id="Ellipse 288" cx="168.73" cy="100.338" r="1.5" transform="rotate(136.123 168.73 100.338)" fill="black"/>
<circle id="Ellipse 386" cx="217.47" cy="103.415" r="1.5" transform="rotate(136.123 217.47 103.415)" fill="black"/>
<circle id="Ellipse 387" cx="215.973" cy="107.629" r="1.5" transform="rotate(136.123 215.973 107.629)" fill="black"/>
<circle id="Ellipse 388" cx="220.88" cy="109.847" r="1.5" transform="rotate(136.123 220.88 109.847)" fill="black"/>
<circle id="Ellipse 389" cx="216.527" cy="115.419" r="1.5" transform="rotate(136.123 216.527 115.419)" fill="black"/>
<circle id="Ellipse 390" cx="221.49" cy="114.809" r="1.5" transform="rotate(136.123 221.49 114.809)" fill="black"/>
<circle id="Ellipse 391" cx="218.994" cy="97.7866" r="1.5" transform="rotate(136.123 218.994 97.7866)" fill="black"/>
<circle id="Ellipse 392" cx="214.808" cy="94.8755" r="1.5" transform="rotate(136.123 214.808 94.8755)" fill="black"/>
<circle id="Ellipse 393" cx="220.63" cy="122.572" r="1.5" transform="rotate(136.123 220.63 122.572)" fill="black"/>
<circle id="Ellipse 394" cx="220.575" cy="89.3306" r="1.5" transform="rotate(136.123 220.575 89.3306)" fill="black"/>
<circle id="Ellipse 395" cx="233.162" cy="96.6498" r="1.5" transform="rotate(136.123 233.162 96.6498)" fill="black"/>
<circle id="Ellipse 396" cx="228.975" cy="93.7387" r="1.5" transform="rotate(136.123 228.975 93.7387)" fill="black"/>
<circle id="Ellipse 397" cx="234.742" cy="88.1938" r="1.5" transform="rotate(136.123 234.742 88.1938)" fill="black"/>
<circle id="Ellipse 398" cx="223.181" cy="100.698" r="1.5" transform="rotate(136.123 223.181 100.698)" fill="black"/>
<circle id="Ellipse 399" cx="227.672" cy="88.0553" r="1.5" transform="rotate(136.123 227.672 88.0553)" fill="black"/>
<circle id="Ellipse 400" cx="224.29" cy="80.2093" r="1.5" transform="rotate(136.123 224.29 80.2093)" fill="black"/>
<circle id="Ellipse 289" cx="159.776" cy="124.208" r="1.5" transform="rotate(136.123 159.776 124.208)" fill="black"/>
<circle id="Ellipse 290" cx="155.589" cy="121.297" r="1.5" transform="rotate(136.123 155.589 121.297)" fill="black"/>
<ellipse id="Ellipse 291" cx="159.595" cy="115.364" rx="2.5" ry="3" transform="rotate(136.123 159.595 115.364)" fill="black"/>
<circle id="Ellipse 296" cx="168.453" cy="114.477" r="1.5" transform="rotate(136.123 168.453 114.477)" fill="black"/>
<circle id="Ellipse 297" cx="165.071" cy="106.631" r="1.5" transform="rotate(136.123 165.071 106.631)" fill="black"/>
<circle id="Ellipse 182" cx="145.456" cy="97.0524" r="15" transform="rotate(136.123 145.456 97.0524)" fill="black"/>
<g id="Planet1">
<circle id="Ellipse 430" cx="29.6047" cy="70.6046" r="7.5" transform="rotate(136.123 29.6047 70.6046)" fill="#029F7A"/>
<circle id="Ellipse 431" cx="33.6047" cy="73.6046" r="7.5" transform="rotate(136.123 33.6047 73.6046)" fill="#029F7A"/>
<circle id="Ellipse 432" cx="27.6047" cy="75.6046" r="7.5" transform="rotate(136.123 27.6047 75.6046)" fill="#029F7A"/>
<circle id="Ellipse 433" cx="25.6047" cy="72.6046" r="7.5" transform="rotate(136.123 25.6047 72.6046)" fill="#029F7A"/>
</g>
<g id="Planet2">
<ellipse id="Ellipse 434" cx="216.763" cy="133.256" rx="10" ry="9" transform="rotate(136.123 216.763 133.256)" fill="#78C5B2"/>
<ellipse id="Ellipse 435" cx="205.763" cy="134.256" rx="10" ry="9" transform="rotate(136.123 205.763 134.256)" fill="#78C5B2"/>
<ellipse id="Ellipse 436" cx="211.763" cy="139.256" rx="10" ry="9" transform="rotate(136.123 211.763 139.256)" fill="#78C5B2"/>
<ellipse id="Ellipse 437" cx="212.763" cy="130.256" rx="10" ry="9" transform="rotate(136.123 212.763 130.256)" fill="#78C5B2"/>
</g>
<circle id="Ellipse 281" cx="167.712" cy="66.1038" r="1.5" transform="rotate(-91.9298 167.712 66.1038)" fill="black"/>
<circle id="Ellipse 282" cx="173.428" cy="68.6037" r="1.5" transform="rotate(-91.9298 173.428 68.6037)" fill="black"/>
<circle id="Ellipse 283" cx="162.749" cy="67.2716" r="1.5" transform="rotate(-91.9298 162.749 67.2716)" fill="black"/>
<ellipse id="Ellipse 284" cx="172.398" cy="78.7164" rx="5" ry="2.5" transform="rotate(-99.8474 172.398 78.7164)" fill="black"/>
<circle id="Ellipse 278" cx="164.861" cy="72.6793" r="1.5" transform="rotate(-91.9298 164.861 72.6793)" fill="black"/>
<circle id="Ellipse 279" cx="155.796" cy="66.1364" r="1.5" transform="rotate(-91.9298 155.796 66.1364)" fill="black"/>
<circle id="Ellipse 280" cx="147.129" cy="67.3025" r="1.5" transform="rotate(-91.9298 147.129 67.3025)" fill="black"/>
<circle id="Ellipse 298" cx="144.712" cy="139.657" r="1.5" transform="rotate(4.85824 144.712 139.657)" fill="black"/>
<ellipse id="Ellipse 299" cx="149.737" cy="139.583" rx="2.5" ry="3" transform="rotate(4.85824 149.737 139.583)" fill="black"/>
<circle id="Ellipse 300" cx="147.298" cy="132.852" r="1.5" transform="rotate(4.85824 147.298 132.852)" fill="black"/>
<circle id="Ellipse 301" cx="154.357" cy="132.448" r="1.5" transform="rotate(4.85824 154.357 132.448)" fill="black"/>
<ellipse id="Ellipse 302" cx="151.495" cy="130.7" rx="2.5" ry="3" transform="rotate(4.85824 151.495 130.7)" fill="black"/>
<circle id="Ellipse 303" cx="132.902" cy="151.725" r="1.5" transform="rotate(151.867 132.902 151.725)" fill="black"/>
<circle id="Ellipse 304" cx="129.662" cy="147.787" r="1.5" transform="rotate(151.867 129.662 147.787)" fill="black"/>
<circle id="Ellipse 305" cx="136.717" cy="144.015" r="1.5" transform="rotate(151.867 136.717 144.015)" fill="black"/>
<circle id="Ellipse 306" cx="143.894" cy="144.713" r="1.5" transform="rotate(151.867 143.894 144.713)" fill="black"/>
<circle id="Ellipse 307" cx="114.212" cy="162.507" r="1.5" transform="rotate(20.6021 114.212 162.507)" fill="black"/>
<circle id="Ellipse 308" cx="118.66" cy="162.043" r="1.5" transform="rotate(20.6021 118.66 162.043)" fill="black"/>
<ellipse id="Ellipse 309" cx="118.955" cy="158.415" rx="2.5" ry="3" transform="rotate(20.6021 118.955 158.415)" fill="black"/>
<circle id="Ellipse 310" cx="125.451" cy="158.186" r="1.5" transform="rotate(20.6021 125.451 158.186)" fill="black"/>
<circle id="Ellipse 311" cx="122.763" cy="153.97" r="1.5" transform="rotate(20.6021 122.763 153.97)" fill="black"/>
<circle id="Ellipse 401" cx="147.354" cy="163.23" r="1.5" transform="rotate(136.123 147.354 163.23)" fill="black"/>
<circle id="Ellipse 402" cx="143.167" cy="160.319" r="1.5" transform="rotate(136.123 143.167 160.319)" fill="black"/>
<ellipse id="Ellipse 403" cx="147.174" cy="154.386" rx="2.5" ry="3" transform="rotate(136.123 147.174 154.386)" fill="black"/>
<circle id="Ellipse 404" cx="156.031" cy="153.498" r="1.5" transform="rotate(136.123 156.031 153.498)" fill="black"/>
<circle id="Ellipse 405" cx="132.291" cy="178.679" r="1.5" transform="rotate(4.85824 132.291 178.679)" fill="black"/>
<ellipse id="dot7" cx="137.315" cy="178.604" rx="2.5" ry="3" transform="rotate(4.85824 137.315 178.604)" fill="black"/>
<circle id="Ellipse 407" cx="134.876" cy="171.873" r="1.5" transform="rotate(4.85824 134.876 171.873)" fill="black"/>
<circle id="Ellipse 408" cx="141.936" cy="171.47" r="1.5" transform="rotate(4.85824 141.936 171.47)" fill="black"/>
<ellipse id="Ellipse 409" cx="139.074" cy="169.721" rx="2.5" ry="3" transform="rotate(4.85824 139.074 169.721)" fill="black"/>
<circle id="Ellipse 410" cx="120.48" cy="190.746" r="1.5" transform="rotate(151.867 120.48 190.746)" fill="black"/>
<circle id="Ellipse 411" cx="117.241" cy="186.809" r="1.5" transform="rotate(151.867 117.241 186.809)" fill="black"/>
<circle id="Ellipse 412" cx="124.296" cy="183.036" r="1.5" transform="rotate(151.867 124.296 183.036)" fill="black"/>
<circle id="Ellipse 413" cx="131.473" cy="183.735" r="1.5" transform="rotate(151.867 131.473 183.735)" fill="black"/>
<circle id="Ellipse 414" cx="101.79" cy="201.529" r="1.5" transform="rotate(20.6021 101.79 201.529)" fill="black"/>
<circle id="Ellipse 415" cx="106.238" cy="201.064" r="1.5" transform="rotate(20.6021 106.238 201.064)" fill="black"/>
<ellipse id="Ellipse 416" cx="106.534" cy="197.436" rx="2.5" ry="3" transform="rotate(20.6021 106.534 197.436)" fill="black"/>
<circle id="Ellipse 417" cx="113.03" cy="197.207" r="1.5" transform="rotate(20.6021 113.03 197.207)" fill="black"/>
<circle id="Ellipse 418" cx="110.341" cy="192.991" r="1.5" transform="rotate(20.6021 110.341 192.991)" fill="black"/>
<circle id="Ellipse 438" cx="14.0459" cy="191.621" r="1.5" transform="rotate(-112.991 14.0459 191.621)" fill="black"/>
<circle id="Ellipse 439" cx="10.6424" cy="188.72" r="1.5" transform="rotate(-112.991 10.6424 188.72)" fill="black"/>
<circle id="Ellipse 440" cx="6.8206" cy="192.514" r="1.5" transform="rotate(-112.991 6.8206 192.514)" fill="black"/>
<circle id="dot11" cx="3.16581" cy="186.461" r="1.5" transform="rotate(-112.991 3.16581 186.461)" fill="black"/>
<circle id="Ellipse 442" cx="1.96684" cy="191.315" r="1.5" transform="rotate(-112.991 1.96684 191.315)" fill="black"/>
<circle id="Ellipse 443" cx="18.7605" cy="195.053" r="1.5" transform="rotate(-112.991 18.7605 195.053)" fill="black"/>
<circle id="dot5" cx="22.9727" cy="192.179" r="1.5" transform="rotate(-112.991 22.9727 192.179)" fill="black"/>
<circle id="Ellipse 445" cx="26.0977" cy="199.543" r="1.5" transform="rotate(-112.991 26.0977 199.543)" fill="black"/>
<circle id="Ellipse 446" cx="14.5481" cy="197.926" r="1.5" transform="rotate(-112.991 14.5481 197.926)" fill="black"/>
<circle id="Ellipse 447" cx="8.76127" cy="181.967" r="1.5" transform="rotate(-112.991 8.76127 181.967)" fill="black"/>
<circle id="Ellipse 448" cx="33.2952" cy="206.266" r="1.5" transform="rotate(-112.991 33.2952 206.266)" fill="black"/>
<circle id="Ellipse 449" cx="60.3471" cy="199.87" r="1.5" transform="rotate(176.612 60.3471 199.87)" fill="black"/>
<circle id="Ellipse 450" cx="59.0534" cy="194.938" r="1.5" transform="rotate(176.612 59.0534 194.938)" fill="black"/>
<circle id="Ellipse 451" cx="38.86" cy="201.839" r="1.5" transform="rotate(45.3471 38.86 201.839)" fill="black"/>
<circle id="Ellipse 452" cx="43.0938" cy="203.279" r="1.5" transform="rotate(45.3471 43.0938 203.279)" fill="black"/>
<ellipse id="Ellipse 453" cx="44.881" cy="200.108" rx="2.5" ry="3" transform="rotate(45.3471 44.881 200.108)" fill="black"/>
<circle id="Ellipse 454" cx="50.8763" cy="202.619" r="1.5" transform="rotate(45.3471 50.8763 202.619)" fill="black"/>
<circle id="Ellipse 455" cx="50.1993" cy="197.665" r="1.5" transform="rotate(45.3471 50.1993 197.665)" fill="black"/>
<circle id="Ellipse 275" cx="139.914" cy="75.8583" r="1.5" transform="rotate(-91.9298 139.914 75.8583)" fill="black"/>
<circle id="Ellipse 276" cx="137.78" cy="71.9279" r="1.5" transform="rotate(-91.9298 137.78 71.9279)" fill="black"/>
<circle id="Ellipse 277" cx="132.851" cy="74.0951" r="1.5" transform="rotate(-91.9298 132.851 74.0951)" fill="black"/>
<circle id="Ellipse 351_2" cx="103.853" cy="7.78939" r="1.5" transform="rotate(45.2285 103.853 7.78939)" fill="black"/>
<circle id="Ellipse 352_2" cx="108.09" cy="9.22052" r="1.5" transform="rotate(45.2285 108.09 9.22052)" fill="black"/>
<circle id="Ellipse 353_2" cx="110.231" cy="4.27926" r="1.5" transform="rotate(45.2285 110.231 4.27926)" fill="black"/>
<circle id="Ellipse 354_2" cx="115.871" cy="8.54443" r="1.5" transform="rotate(45.2285 115.871 8.54443)" fill="black"/>
<circle id="dot12" cx="115.183" cy="3.59191" r="1.5" transform="rotate(45.2285 115.183 3.59191)" fill="black"/>
<circle id="Ellipse 356_2" cx="98.2015" cy="6.35263" r="1.5" transform="rotate(45.2285 98.2015 6.35263)" fill="black"/>
<circle id="Ellipse 357_2" cx="95.3563" cy="10.584" r="1.5" transform="rotate(45.2285 95.3563 10.584)" fill="black"/>
<circle id="Ellipse 358_2" cx="122.959" cy="4.33004" r="1.5" transform="rotate(45.2285 122.959 4.33004)" fill="black"/>
<circle id="Ellipse 359" cx="101.047" cy="2.1213" r="1.5" transform="rotate(45.2285 101.047 2.1213)" fill="black"/>
</g>
</svg>
