<svg width="26" height="28" viewBox="0 0 26 28" fill="none" xmlns="http://www.w3.org/2000/svg">
<g id="LandingSatelite">
<rect id="Rectangle 4" width="11.7396" height="6.22096" rx="1" transform="matrix(0.692527 0.721392 -0.72933 0.684162 9.73828 6.11102)" fill="black"/>
<rect id="Rectangle 6" width="2.18247" height="1.1136" transform="matrix(-0.707528 0.706685 -0.714808 -0.699321 9.22314 14.2753)" fill="black"/>
<rect id="Rectangle 22" width="1.89931" height="1.1136" transform="matrix(-0.707528 0.706685 -0.714808 -0.699321 14.7581 8.76385)" fill="black"/>
<path id="firstWave" d="M18.1485 16.7234C17.4551 18.587 16.8789 19.5233 15 20.7001" stroke="black"/>
<path id="secondWave" d="M20.8631 15.9292C20.0635 19.6373 19.0932 21.3646 15.7942 23.4147" stroke="black"/>
<path id="thirdWave" d="M24.0789 15.4093C22.6753 20.6743 21.4038 23.27 17.0895 26.4036" stroke="black"/>
<circle id="Ellipse 15" cx="13.5" cy="14.5" r="2.25" fill="black" stroke="white" stroke-width="0.5"/>
<rect id="Rectangle 20" y="21.5974" width="9" height="3" transform="rotate(-47.1425 0 21.5974)" fill="black"/>
<line id="Line 1" x1="0.85022" y1="20.6811" x2="3.04936" y2="22.7217" stroke="white" stroke-width="0.5"/>
<line id="Line 9" x1="0.54977" y1="22.1076" x2="6.67136" y2="15.5101" stroke="white" stroke-width="0.5"/>
<line id="Line 10" x1="1.28292" y1="22.7877" x2="7.40452" y2="16.1903" stroke="white" stroke-width="0.5"/>
<line id="Line 2" x1="1.5304" y1="19.9481" x2="3.72954" y2="21.9886" stroke="white" stroke-width="0.5"/>
<line id="Line 3" x1="2.21057" y1="19.215" x2="4.40972" y2="21.2556" stroke="white" stroke-width="0.5"/>
<line id="Line 4" x1="2.89075" y1="18.482" x2="5.08989" y2="20.5225" stroke="white" stroke-width="0.5"/>
<line id="Line 5" x1="3.57092" y1="17.7489" x2="5.77007" y2="19.7895" stroke="white" stroke-width="0.5"/>
<line id="Line 6" x1="4.2511" y1="17.0159" x2="6.45024" y2="19.0564" stroke="white" stroke-width="0.5"/>
<line id="Line 7" x1="4.93127" y1="16.2828" x2="7.13042" y2="18.3234" stroke="white" stroke-width="0.5"/>
<line id="Line 8" x1="5.61145" y1="15.5498" x2="7.8106" y2="17.5903" stroke="white" stroke-width="0.5"/>
<rect id="Rectangle 21" x="14" y="6.59743" width="9" height="3" transform="rotate(-47.1425 14 6.59743)" fill="black"/>
<line id="Line 11" x1="14.8502" y1="5.68113" x2="17.0494" y2="7.72166" stroke="white" stroke-width="0.5"/>
<line id="Line 12" x1="14.5498" y1="7.10757" x2="20.6714" y2="0.510133" stroke="white" stroke-width="0.5"/>
<line id="Line 13" x1="15.2829" y1="7.78774" x2="21.4045" y2="1.19031" stroke="white" stroke-width="0.5"/>
<line id="Line 14" x1="15.5304" y1="4.94808" x2="17.7295" y2="6.98861" stroke="white" stroke-width="0.5"/>
<line id="Line 15" x1="16.2106" y1="4.21503" x2="18.4097" y2="6.25556" stroke="white" stroke-width="0.5"/>
<line id="Line 16" x1="16.8907" y1="3.48198" x2="19.0899" y2="5.52251" stroke="white" stroke-width="0.5"/>
<line id="Line 17" x1="17.5709" y1="2.74894" x2="19.7701" y2="4.78947" stroke="white" stroke-width="0.5"/>
<line id="Line 18" x1="18.2511" y1="2.01589" x2="20.4502" y2="4.05642" stroke="white" stroke-width="0.5"/>
<line id="Line 19" x1="18.9313" y1="1.28284" x2="21.1304" y2="3.32337" stroke="white" stroke-width="0.5"/>
<line id="Line 20" x1="19.6115" y1="0.549793" x2="21.8106" y2="2.59032" stroke="white" stroke-width="0.5"/>
</g>
</svg>
