<svg width="443" height="339" viewBox="0 0 443 339" fill="none" xmlns="http://www.w3.org/2000/svg">
<g id="Frame 3">
<rect width="443" height="339" fill="white"/>
<g id="Group 3">
<path id="Ellipse 1" d="M339.78 204.593C317.251 232.111 294.875 255.386 276.916 270.772C267.933 278.468 260.074 284.174 253.865 287.454C250.759 289.095 248.093 290.113 245.923 290.482C243.75 290.851 242.153 290.557 241.084 289.682C240.016 288.807 239.412 287.3 239.345 285.096C239.278 282.896 239.751 280.082 240.746 276.713C242.736 269.979 246.778 261.149 252.55 250.823C264.089 230.18 282.489 203.65 305.019 176.133C327.548 148.615 349.924 125.34 367.884 109.954C376.866 102.258 384.725 96.552 390.934 93.2724C394.04 91.6315 396.706 90.6127 398.876 90.2441C401.049 89.8749 402.646 90.1693 403.715 91.0441C404.783 91.9188 405.387 93.4261 405.454 95.6298C405.521 97.8296 405.048 100.644 404.053 104.013C402.063 110.747 398.021 119.578 392.249 129.903C380.71 150.546 362.31 177.076 339.78 204.593Z" stroke="black"/>
<path id="Ellipse 11" d="M336.142 215.277C310.773 240.2 286.013 260.923 266.497 274.279C256.736 280.96 248.307 285.784 241.78 288.374C238.515 289.67 235.755 290.395 233.558 290.527C231.357 290.659 229.801 290.194 228.834 289.209C227.866 288.224 227.429 286.66 227.6 284.462C227.771 282.268 228.545 279.521 229.898 276.279C232.603 269.8 237.576 261.457 244.429 251.816C258.13 232.54 279.288 208.152 304.657 183.229C330.027 158.305 354.786 137.583 374.302 124.226C384.063 117.545 392.492 112.722 399.019 110.132C402.284 108.836 405.044 108.111 407.241 107.979C409.442 107.846 410.998 108.312 411.965 109.297C412.933 110.282 413.371 111.845 413.199 114.043C413.028 116.238 412.255 118.985 410.901 122.226C408.196 128.706 403.223 137.048 396.37 146.69C382.67 165.966 361.511 190.353 336.142 215.277Z" stroke="black"/>
<path id="Ellipse 4" d="M401.5 192.5C401.5 247.787 361.822 292.5 313 292.5C264.178 292.5 224.5 247.787 224.5 192.5C224.5 137.213 264.178 92.5 313 92.5C361.822 92.5 401.5 137.213 401.5 192.5Z" stroke="black"/>
<circle id="satelelite" cx="345.5" cy="136.5" r="12.5" fill="#0D0D0D"/>
</g>
<g id="Group 2">
<path id="Ellipse 8" d="M409.397 57.7912C407.027 60.6856 402.582 61.576 397.132 60.4738C391.708 59.3766 385.428 56.3231 379.601 51.5522C373.773 46.7813 369.54 41.2278 367.394 36.1264C365.238 31.0016 365.233 26.4678 367.603 23.5735C369.973 20.6791 374.418 19.7887 379.868 20.8909C385.292 21.9881 391.572 25.0416 397.399 29.8125C403.227 34.5834 407.46 40.1369 409.606 45.2383C411.762 50.3632 411.767 54.8969 409.397 57.7912Z" stroke="black"/>
<circle id="Ellipse 9" cx="297" cy="32" r="10" fill="#0D0D0D"/>
</g>
<g id="Group 4">
<path id="Ellipse 6" d="M105.005 298.781C90.5487 316.256 67.1613 320.557 52.781 308.66C38.4007 296.764 38.2438 272.985 52.7002 255.51C67.1567 238.036 90.5441 233.735 104.924 245.631C119.305 257.528 119.462 281.307 105.005 298.781Z" stroke="black"/>
<path id="Ellipse 11_2" d="M93.9615 287.327C86.5782 296.252 74.4139 298.211 66.8041 291.916C59.1943 285.62 58.84 273.304 66.2233 264.38C73.6065 255.455 85.7709 253.496 93.3807 259.791C100.99 266.087 101.345 278.403 93.9615 287.327Z" stroke="black"/>
<circle id="innersatelite" cx="90" cy="293" r="5" fill="#0D0D0D"/>
<circle id="externalsatelite" cx="25.5" cy="228.5" r="7.5" fill="#0D0D0D"/>
</g>
</g>
</svg>
